<svg width="22" height="23" viewBox="0 0 22 23" fill="none" xmlns="http://www.w3.org/2000/svg">
<path fill-rule="evenodd" clip-rule="evenodd" d="M12.8333 17.0001C12.8333 18.0127 12.0125 18.8335 11 18.8335C9.98748 18.8335 9.16665 18.0127 9.16665 17.0001H12.8333ZM11 2.3335C7.4525 2.3335 4.58335 5.61515 4.58335 9.66684V11.766L2.75 17.0001H7.33335C7.33335 19.0252 8.97497 20.6668 11 20.6668C13.025 20.6668 14.6667 19.0252 14.6667 17.0001H19.25L17.4167 11.766V9.93265C17.4167 6.4585 15.3908 3.27765 12.4208 2.59934C11.9598 2.45341 11.4826 2.36413 11 2.3335ZM5.335 15.1668L6.31585 12.4168L6.41665 12.0776V9.66684C6.41665 6.63265 8.47 4.16684 11 4.16684C11.3306 4.16627 11.66 4.20629 11.9808 4.286C14.0342 4.79015 15.5833 7.201 15.5833 9.88684V12.0776L15.6842 12.371L16.665 15.1668H5.335Z" fill="black"/>
</svg>
